<svg width="20" height="20" viewBox="0 0 20 20" fill="none" xmlns="http://www.w3.org/2000/svg">
<path fill-rule="evenodd" clip-rule="evenodd" d="M9.16666 2.5C8.50362 2.5 7.86774 2.76339 7.3989 3.23223C6.93006 3.70107 6.66666 4.33696 6.66666 5V5.83333H4.16666C3.50362 5.83333 2.86774 6.09673 2.3989 6.56557C1.93006 7.03441 1.66666 7.67029 1.66666 8.33333V15C1.66666 15.663 1.93006 16.2989 2.3989 16.7678C2.86774 17.2366 3.50362 17.5 4.16666 17.5H15.8333C16.4964 17.5 17.1323 17.2366 17.6011 16.7678C18.0699 16.2989 18.3333 15.663 18.3333 15V8.33333C18.3333 7.67029 18.0699 7.03441 17.6011 6.56557C17.1323 6.09673 16.4964 5.83333 15.8333 5.83333H13.3333V5C13.3333 4.33696 13.0699 3.70107 12.6011 3.23223C12.1323 2.76339 11.4964 2.5 10.8333 2.5H9.16666ZM11.6667 5.83333H8.33333V5C8.33333 4.77899 8.42113 4.56702 8.57741 4.41074C8.73369 4.25446 8.94565 4.16667 9.16666 4.16667H10.8333C11.0543 4.16667 11.2663 4.25446 11.4226 4.41074C11.5789 4.56702 11.6667 4.77899 11.6667 5V5.83333Z" fill="#9D9EA6"/>
</svg>
