<svg width="20" height="20" viewBox="0 0 20 20" fill="none" xmlns="http://www.w3.org/2000/svg">
<path fill-rule="evenodd" clip-rule="evenodd" d="M0.833313 9.96251V10.0375C0.841646 12.275 1.65331 14.3242 2.99331 15.9108C3.77518 16.8363 4.73173 17.5986 5.80831 18.1542C7.10426 18.8226 8.54182 19.1698 9.99998 19.1667C13.075 19.1667 15.7958 17.6533 17.4583 15.33C18.5715 13.7759 19.169 11.9117 19.1666 10C19.1666 7.28334 17.985 4.84168 16.1066 3.16418C14.3571 1.59519 12.0696 0.761754 9.72081 0.83751C7.46993 0.9017 5.32238 1.79634 3.69165 3.34918C2.6676 4.32083 1.88067 5.51492 1.39165 6.83918C1.025 7.83981 0.836051 8.89682 0.833313 9.96251ZM17.0675 12.5158C17.3475 11.7292 17.5 10.8825 17.5 10C17.5027 8.03278 16.7299 6.14376 15.3491 4.74251C14.6821 5.85066 13.7867 6.80403 12.7225 7.53918C13.1153 8.55813 13.3235 9.63889 13.3375 10.7308C14.6998 11.0361 15.9752 11.6464 17.0675 12.5158ZM13.2008 12.4125C14.3522 12.7073 15.4175 13.2701 16.31 14.055C15.6753 15.0433 14.8172 15.8687 13.805 16.4645C12.7927 17.0603 11.6546 17.4098 10.4825 17.485C11.3157 16.6936 11.9923 15.7521 12.4766 14.71C12.8258 13.9608 13.065 13.1892 13.2016 12.4125M11.6641 10.5183C11.6323 9.78511 11.4934 9.06049 11.2516 8.36751C9.90814 8.97174 8.43856 9.2425 6.96794 9.15675C5.49731 9.07101 4.06916 8.63129 2.80498 7.87501C2.60196 8.56506 2.49924 9.28072 2.49998 10C2.49764 11.5596 2.98372 13.0808 3.88998 14.35C4.77001 13.1207 5.94001 12.1277 7.29608 11.4592C8.65215 10.7908 10.1531 10.4676 11.6641 10.5183ZM5.03915 15.625C5.73728 14.5405 6.70301 13.6541 7.84325 13.0513C8.9835 12.4485 10.2598 12.1496 11.5491 12.1833C11.4331 12.8129 11.2371 13.4251 10.9658 14.005C10.3412 15.35 9.3302 16.4786 8.06165 17.2467C6.94218 16.9474 5.9075 16.3923 5.03915 15.625ZM9.99998 2.50001C11.4875 2.50001 12.8733 2.93334 14.0391 3.67918C13.5242 4.59865 12.8201 5.39847 11.9733 6.02584C11.0973 4.59999 9.84577 3.44273 8.35581 2.68084C8.89556 2.56034 9.44694 2.49969 9.99998 2.50001ZM7.33831 4.03834C8.65475 4.64955 9.76447 5.63126 10.5316 6.86334C9.55378 7.29627 8.49447 7.51455 7.4251 7.50348C6.35574 7.49242 5.30118 7.25225 4.33248 6.79918C4.03235 6.65921 3.74172 6.4997 3.46248 6.32168C4.09549 5.19962 5.00557 4.25856 6.10581 3.58834C6.52248 3.70084 6.93415 3.85001 7.33915 4.03834" fill="#3D3F4C"/>
</svg>
