<svg width="20" height="20" viewBox="0 0 20 20" fill="none" xmlns="http://www.w3.org/2000/svg">
<path d="M7.53335 17.95C8.33335 18.1917 9.14169 18.3333 10 18.3333C12.2102 18.3333 14.3298 17.4553 15.8926 15.8925C17.4554 14.3297 18.3334 12.2101 18.3334 9.99999C18.3334 8.90564 18.1178 7.82201 17.699 6.81096C17.2802 5.79991 16.6664 4.88125 15.8926 4.10743C15.1188 3.33361 14.2001 2.71978 13.189 2.30099C12.178 1.8822 11.0944 1.66666 10 1.66666C8.90567 1.66666 7.82204 1.8822 6.81099 2.30099C5.79994 2.71978 4.88129 3.33361 4.10746 4.10743C2.54466 5.67024 1.66669 7.78985 1.66669 9.99999C1.66669 13.5417 3.89169 16.5833 7.03335 17.7833C6.95835 17.1333 6.88335 16.0583 7.03335 15.3167L7.99169 11.2C7.99169 11.2 7.75002 10.7167 7.75002 9.94999C7.75002 8.79999 8.46669 7.94166 9.28335 7.94166C10 7.94166 10.3334 8.46666 10.3334 9.14166C10.3334 9.85832 9.85835 10.8833 9.61669 11.8667C9.47502 12.6833 10.05 13.4 10.8834 13.4C12.3667 13.4 13.5167 11.8167 13.5167 9.58332C13.5167 7.58332 12.0834 6.21666 10.025 6.21666C7.67502 6.21666 6.29169 7.96666 6.29169 9.80832C6.29169 10.525 6.52502 11.25 6.90835 11.725C6.98335 11.775 6.98335 11.8417 6.95835 11.9667L6.71669 12.875C6.71669 13.0167 6.62502 13.0667 6.48335 12.9667C5.41669 12.5 4.80002 10.9833 4.80002 9.75832C4.80002 7.12499 6.66669 4.73332 10.2667 4.73332C13.1334 4.73332 15.3667 6.79166 15.3667 9.52499C15.3667 12.3917 13.5917 14.6917 11.05 14.6917C10.2417 14.6917 9.45002 14.2583 9.16669 13.75L8.60835 15.725C8.41669 16.4417 7.89169 17.4 7.53335 17.975V17.95Z" fill="#3D3F4C"/>
</svg>
