<svg width="20" height="20" viewBox="0 0 20 20" fill="none" xmlns="http://www.w3.org/2000/svg">
<path d="M18.7167 5.00001C18.075 5.29168 17.3833 5.48334 16.6667 5.57501C17.4 5.13334 17.9667 4.43334 18.2333 3.59168C17.5417 4.00834 16.775 4.30001 15.9667 4.46668C15.3083 3.75001 14.3833 3.33334 13.3333 3.33334C11.375 3.33334 9.77499 4.93334 9.77499 6.90834C9.77499 7.19168 9.80832 7.46668 9.86666 7.72501C6.89999 7.57501 4.25832 6.15001 2.49999 3.99168C2.19166 4.51668 2.01666 5.13334 2.01666 5.78334C2.01666 7.02501 2.64166 8.12501 3.60832 8.75001C3.01666 8.75001 2.46666 8.58334 1.98333 8.33334V8.35834C1.98333 10.0917 3.21666 11.5417 4.84999 11.8667C4.32569 12.0108 3.77502 12.0308 3.24166 11.925C3.468 12.6354 3.91127 13.257 4.50917 13.7025C5.10707 14.1479 5.82953 14.3948 6.57499 14.4083C5.31138 15.4088 3.745 15.9495 2.13333 15.9417C1.84999 15.9417 1.56666 15.925 1.28333 15.8917C2.86666 16.9083 4.74999 17.5 6.76666 17.5C13.3333 17.5 16.9417 12.05 16.9417 7.32501C16.9417 7.16668 16.9417 7.01668 16.9333 6.85834C17.6333 6.35834 18.2333 5.72501 18.7167 5.00001Z" fill="#3D3F4C"/>
</svg>
